<?xml version="1.0" encoding="utf-8"?>
<!-- Generator: Adobe Illustrator 16.0.3, SVG Export Plug-In . SVG Version: 6.00 Build 0)  -->
<!DOCTYPE svg PUBLIC "-//W3C//DTD SVG 1.1//EN" "http://www.w3.org/Graphics/SVG/1.1/DTD/svg11.dtd">
<svg version="1.1" id="Layer_1" xmlns:v="https://vecta.io/nano"
	 xmlns="http://www.w3.org/2000/svg" xmlns:xlink="http://www.w3.org/1999/xlink" x="0px" y="0px" width="284.212px"
	 height="284.21px" viewBox="191.738 183.588 284.212 284.21" enable-background="new 191.738 183.588 284.212 284.21"
	 xml:space="preserve">
<path fill="#CCCCCC" d="M250.416,194.64c6.26,0.133,10.39,5.728,12.787,10.656c7.992,17.316,14.386,35.165,21.978,52.614
	c1.599,3.596,2.664,7.592,1.332,11.455c-3.996,11.322-13.32,19.447-20.779,28.505c-2.664,3.063-2.397,7.459-0.266,10.656
	c20.479,39.785,55.565,70.097,97.901,84.582c3.996,1.732,8.792,1.332,11.589-2.131c7.987-8.914,15.544-18.203,22.644-27.838
	c6.128-7.992,11.456-5.729,19.447-2.398l51.149,24.643c3.996,1.73,7.992,4.662,7.592,9.324
	c2.664,34.631-28.371,61.538-60.872,62.604c-83.916-6.127-141.192-52.747-182.484-106.561
	c-13.586-18.914-27.972-37.961-35.431-60.473c-7.06-19.713-7.326-42.224,1.065-61.671c12.92-25.974,24.242-35.964,52.747-34.366
	L250.416,194.64z"/>
</svg>
