<?xml version="1.0" encoding="utf-8"?>
<!-- Generator: Adobe Illustrator 16.0.3, SVG Export Plug-In . SVG Version: 6.00 Build 0)  -->
<!DOCTYPE svg PUBLIC "-//W3C//DTD SVG 1.1//EN" "http://www.w3.org/Graphics/SVG/1.1/DTD/svg11.dtd">
<svg version="1.1" id="Layer_1" xmlns="http://www.w3.org/2000/svg" xmlns:xlink="http://www.w3.org/1999/xlink" x="0px" y="0px"
	 width="446.76px" height="446.76px" viewBox="82.62 172.62 446.76 446.76" enable-background="new 82.62 172.62 446.76 446.76"
	 xml:space="preserve">
<g id="XMLID_17_">
	<path id="XMLID_22_" fill="#1877F2" d="M529.38,396c0-123.379-100.001-223.38-223.38-223.38S82.62,272.62,82.62,396
		c0,111.507,81.641,203.918,188.496,220.688V460.627h-56.671V396h56.671v-49.205c0-55.937,33.292-86.903,84.333-86.903
		c24.479,0,50.062,4.406,50.062,4.406v54.958h-28.15c-27.785,0-36.354,17.259-36.354,34.884V396h61.935l-9.914,64.627h-52.021
		v156.061C447.739,599.918,529.38,507.507,529.38,396z"/>
	<path id="XMLID_18_" fill="#FFFFFF" d="M392.904,460.627L402.818,396h-61.936v-41.86c0-17.625,8.69-34.885,36.354-34.885h28.151
		v-54.958c0,0-25.581-4.407-50.062-4.407c-51.041,0-84.333,30.967-84.333,86.904V396h-56.671v64.627h56.671v156.061
		c11.383,1.837,23.011,2.692,34.884,2.692s23.501-0.979,34.884-2.692V460.627H392.904z"/>
</g>
</svg>
