<?xml version="1.0" encoding="utf-8"?>
<!-- Generator: Adobe Illustrator 16.0.3, SVG Export Plug-In . SVG Version: 6.00 Build 0)  -->
<!DOCTYPE svg PUBLIC "-//W3C//DTD SVG 1.1//EN" "http://www.w3.org/Graphics/SVG/1.1/DTD/svg11.dtd">
<svg version="1.1" id="Layer_1" xmlns="http://www.w3.org/2000/svg" xmlns:xlink="http://www.w3.org/1999/xlink" x="0px" y="0px"
	 width="553.143px" height="792.599px" viewBox="29.728 0 553.143 792.599" enable-background="new 29.728 0 553.143 792.599"
	 xml:space="preserve">
<path fill="#1A73E8" d="M390.108,13.17C363.769,4.789,335.034,0,305.701,0c-84.408,0-160.436,38.313-211.32,98.775l130.503,109.551
	L390.108,13.17z"/>
<path fill="#EA4335" d="M94.381,98.775c-40.109,47.891-64.653,110.15-64.653,177.197c0,52.082,10.177,93.986,27.537,131.701
	l167.619-199.347L94.381,98.775z"/>
<path fill="#4285F4" d="M306.299,170.612c58.667,0,105.96,47.292,105.96,105.959c0,25.742-9.578,49.687-25.144,68.245
	c0,0,83.211-99.374,164.626-195.755C518.218,84.408,460.149,35.32,390.108,13.17L224.884,208.327
	C244.64,185.578,273.374,170.612,306.299,170.612"/>
<path fill="#FBBC04" d="M306.299,381.932c-58.666,0-105.958-47.292-105.958-105.959c0-25.741,8.979-49.687,24.544-67.646
	L57.265,407.674C86,471.129,133.891,522.612,182.979,586.667l204.136-242.449C367.36,367.564,338.626,381.932,306.299,381.932"/>
<path fill="#34A853" d="M383.523,653.714c92.19-144.271,199.348-209.523,199.348-377.143c0-46.095-11.375-89.197-31.13-127.51
	L182.979,586.667c15.565,20.354,31.728,43.7,47.292,67.646c56.272,86.803,40.708,138.286,76.625,138.286
	C342.816,792.599,327.252,740.518,383.523,653.714"/>
</svg>
