<?xml version="1.0" encoding="utf-8"?>
<!-- Generator: Adobe Illustrator 16.0.3, SVG Export Plug-In . SVG Version: 6.00 Build 0)  -->
<!DOCTYPE svg PUBLIC "-//W3C//DTD SVG 1.1//EN" "http://www.w3.org/Graphics/SVG/1.1/DTD/svg11.dtd">
<svg version="1.1" id="Layer_1" xmlns="http://www.w3.org/2000/svg" xmlns:xlink="http://www.w3.org/1999/xlink" x="0px" y="0px"
	 width="130.025px" height="129.989px" viewBox="1 1 130.025 129.989" enable-background="new 1 1 130.025 129.989"
	 xml:space="preserve">
<radialGradient id="SVGID_1_" cx="-247.3169" cy="-245.4746" r="65.0004" gradientTransform="matrix(0 -1.982 -1.8439 0 -417.0918 -349.1754)" gradientUnits="userSpaceOnUse">
	<stop  offset="0" style="stop-color:#FFDD55"/>
	<stop  offset="0.1" style="stop-color:#FFDD55"/>
	<stop  offset="0.5" style="stop-color:#FF543E"/>
	<stop  offset="1" style="stop-color:#C837AB"/>
</radialGradient>
<path fill="url(#SVGID_1_)" d="M66.034,1c-27.142,0-35.08,0.028-36.623,0.156c-5.57,0.463-9.036,1.34-12.812,3.22
	c-2.91,1.445-5.205,3.12-7.47,5.468c-4.125,4.282-6.625,9.55-7.53,15.813c-0.44,3.04-0.568,3.66-0.594,19.188
	c-0.01,5.176,0,11.988,0,21.125c0,27.12,0.03,35.051,0.16,36.59c0.45,5.42,1.3,8.83,3.1,12.561c3.44,7.14,10.01,12.5,17.75,14.5
	c2.68,0.689,5.64,1.07,9.44,1.25c1.61,0.07,18.02,0.12,34.44,0.12c16.419,0,32.839-0.021,34.41-0.101
	c4.4-0.207,6.955-0.55,9.78-1.279c7.79-2.01,14.24-7.291,17.75-14.53c1.765-3.64,2.66-7.181,3.065-12.317
	c0.088-1.119,0.125-18.977,0.125-36.81c0-17.836-0.041-35.66-0.129-36.78c-0.41-5.22-1.305-8.73-3.127-12.44
	c-1.494-3.037-3.154-5.305-5.564-7.624C117.904,5,112.645,2.5,106.376,1.596C103.339,1.157,102.734,1.027,87.193,1H66.034z"/>
<radialGradient id="SVGID_2_" cx="325.9414" cy="35.623" r="65.0002" gradientTransform="matrix(0.1739 0.8687 3.5818 -0.7172 -205.0707 -247.2407)" gradientUnits="userSpaceOnUse">
	<stop  offset="0" style="stop-color:#3771C8"/>
	<stop  offset="0.128" style="stop-color:#3771C8"/>
	<stop  offset="1" style="stop-color:#6600FF;stop-opacity:0"/>
</radialGradient>
<path fill="url(#SVGID_2_)" d="M66.034,1c-27.142,0-35.08,0.028-36.623,0.156c-5.57,0.463-9.036,1.34-12.812,3.22
	c-2.91,1.445-5.205,3.12-7.47,5.468c-4.125,4.282-6.625,9.55-7.53,15.813c-0.44,3.04-0.568,3.66-0.594,19.188
	c-0.01,5.176,0,11.988,0,21.125c0,27.12,0.03,35.051,0.16,36.59c0.45,5.42,1.3,8.83,3.1,12.561c3.44,7.14,10.01,12.5,17.75,14.5
	c2.68,0.689,5.64,1.07,9.44,1.25c1.61,0.07,18.02,0.12,34.44,0.12c16.419,0,32.839-0.021,34.41-0.101
	c4.4-0.207,6.955-0.55,9.78-1.279c7.79-2.01,14.24-7.291,17.75-14.53c1.765-3.64,2.66-7.181,3.065-12.317
	c0.088-1.119,0.125-18.977,0.125-36.81c0-17.836-0.041-35.66-0.129-36.78c-0.41-5.22-1.305-8.73-3.127-12.44
	c-1.494-3.037-3.154-5.305-5.564-7.624C117.904,5,112.645,2.5,106.376,1.596C103.339,1.157,102.734,1.027,87.193,1H66.034z"/>
<path fill="#FFFFFF" d="M66.004,18c-13.036,0-14.672,0.057-19.792,0.29c-5.11,0.234-8.598,1.043-11.65,2.23
	c-3.157,1.226-5.835,2.866-8.503,5.535c-2.67,2.668-4.31,5.346-5.54,8.502c-1.19,3.053-2,6.542-2.23,11.65
	C18.06,51.327,18,52.964,18,66s0.058,14.667,0.29,19.787c0.235,5.109,1.044,8.598,2.23,11.65c1.227,3.156,2.867,5.834,5.536,8.502
	c2.667,2.67,5.345,4.314,8.5,5.541c3.054,1.187,6.543,1.996,11.652,2.229c5.12,0.233,6.755,0.29,19.79,0.29
	c13.037,0,14.668-0.057,19.788-0.29c5.11-0.233,8.603-1.043,11.655-2.229c3.156-1.227,5.83-2.871,8.498-5.541
	c2.67-2.668,4.31-5.346,5.539-8.502c1.181-3.053,1.99-6.541,2.23-11.649c0.23-5.12,0.29-6.752,0.29-19.788s-0.06-14.672-0.29-19.792
	c-0.24-5.11-1.05-8.598-2.23-11.65c-1.229-3.157-2.869-5.835-5.539-8.503c-2.67-2.67-5.34-4.31-8.5-5.535
	c-3.061-1.187-6.551-1.996-11.66-2.23c-5.12-0.233-6.75-0.29-19.791-0.29H66.004z M61.698,26.65c1.278-0.002,2.704,0,4.306,0
	c12.816,0,14.335,0.046,19.396,0.276c4.68,0.214,7.22,0.996,8.912,1.653c2.239,0.87,3.836,1.91,5.516,3.59
	c1.68,1.68,2.72,3.28,3.592,5.52c0.657,1.69,1.439,4.23,1.653,8.91c0.229,5.06,0.28,6.58,0.28,19.39
	c0,12.81-0.051,14.329-0.28,19.39c-0.214,4.68-0.996,7.221-1.653,8.91c-0.87,2.24-1.912,3.835-3.592,5.514
	c-1.68,1.68-3.275,2.721-5.516,3.59c-1.69,0.66-4.232,1.44-8.912,1.654c-5.061,0.23-6.58,0.28-19.396,0.28
	c-12.817,0-14.336-0.05-19.396-0.28c-4.68-0.216-7.22-0.998-8.913-1.654c-2.24-0.871-3.84-1.91-5.52-3.591
	c-1.68-1.68-2.72-3.276-3.592-5.517c-0.657-1.69-1.44-4.23-1.653-8.91c-0.23-5.061-0.276-6.58-0.276-19.398s0.046-14.33,0.276-19.39
	c0.214-4.68,0.996-7.22,1.653-8.912c0.87-2.24,1.912-3.84,3.592-5.52c1.68-1.68,3.28-2.72,5.52-3.592
	c1.692-0.66,4.233-1.44,8.913-1.655c4.428-0.2,6.144-0.26,15.09-0.27V26.65z M91.626,34.62c-3.181,0-5.76,2.577-5.76,5.758
	c0,3.18,2.579,5.76,5.76,5.76s5.761-2.58,5.761-5.76c0-3.18-2.58-5.76-5.761-5.76V34.62z M66.004,41.35
	c-13.613,0-24.65,11.037-24.65,24.65c0,13.613,11.037,24.645,24.65,24.645C79.617,90.645,90.65,79.613,90.65,66
	C90.65,52.387,79.616,41.35,66.004,41.35L66.004,41.35z M66.004,50c8.836,0,16,7.163,16,16c0,8.836-7.164,16-16,16
	c-8.837,0-16-7.164-16-16C50.004,57.163,57.167,50,66.004,50z"/>
</svg>
